<?xml version="1.0" standalone="no"?>
<!DOCTYPE svg PUBLIC "-//W3C//DTD SVG 20010904//EN"
 "http://www.w3.org/TR/2001/REC-SVG-20010904/DTD/svg10.dtd">
<svg version="1.0" xmlns="http://www.w3.org/2000/svg"
 width="1024.000000pt" height="1024.000000pt" viewBox="0 0 1024.000000 1024.000000"
 preserveAspectRatio="xMidYMid meet">

<g transform="translate(0.000000,1024.000000) scale(0.100000,-0.100000)"
fill="#000000" stroke="none">
<path d="M0 5120 l0 -5120 5120 0 5120 0 0 5120 0 5120 -5120 0 -5120 0 0
-5120z m1403 932 c197 -54 301 -158 330 -331 8 -47 7 -83 -1 -133 -22 -129
-77 -198 -206 -258 l-79 -37 47 -6 c115 -16 225 -101 278 -214 28 -59 32 -80
36 -176 6 -131 -12 -210 -68 -295 -44 -69 -96 -112 -182 -151 -124 -58 -171
-63 -645 -68 l-433 -5 0 852 0 852 423 -4 c390 -5 428 -7 500 -26z m1727 -157
l0 -185 -295 0 -295 0 0 -150 0 -150 280 0 280 0 0 -180 0 -180 -280 0 -280 0
0 -145 0 -145 295 0 295 0 0 -190 0 -190 -520 0 -520 0 0 850 0 850 520 0 520
0 0 -185z m1279 153 c57 -163 565 -1637 569 -1650 4 -17 -12 -18 -226 -18
l-231 0 -20 68 c-11 37 -30 104 -43 150 l-23 82 -326 0 -327 0 -20 -67 c-12
-38 -31 -105 -44 -150 l-23 -83 -233 0 c-133 0 -232 4 -230 9 2 5 133 387 293
850 l290 841 291 0 292 0 11 -32z m1731 -168 l0 -200 -190 0 -190 0 0 -650 0
-650 -235 0 -235 0 0 650 0 650 -190 0 -190 0 0 200 0 200 615 0 615 0 0 -200z"/>
<path d="M910 5568 l0 -171 123 6 c209 10 262 44 262 167 0 73 -19 111 -65
135 -38 20 -140 35 -237 35 l-83 0 0 -172z"/>
<path d="M910 4914 l0 -187 153 6 c172 6 232 21 271 68 30 35 40 83 33 146
-13 114 -99 153 -344 153 l-113 0 0 -186z"/>
<path d="M4086 5706 c-10 -41 -59 -213 -110 -383 l-93 -308 113 -3 c63 -1 165
-1 227 0 l113 3 -87 285 c-49 157 -98 326 -110 375 -12 50 -25 93 -28 98 -4 4
-15 -26 -25 -67z"/>
</g>
</svg>
